<svg width="65" height="65" viewBox="0 0 65 65" fill="none" xmlns="http://www.w3.org/2000/svg">
<path d="M32.285 0.977093C32.2821 0.558131 32.6196 0.21526 33.0385 0.222254C39.337 0.327406 45.4677 2.27342 50.6738 5.82005C51.02 6.05593 51.098 6.53065 50.854 6.87127C50.6101 7.21189 50.1366 7.28938 49.7901 7.05389C44.8449 3.69337 39.0268 1.84662 33.0488 1.73988C32.6299 1.7324 32.2878 1.39605 32.285 0.977093Z" fill="white"/>
<path d="M10.0584 10.3612C9.7601 10.067 9.75627 9.5859 10.0574 9.29463C14.5855 4.91528 20.2966 1.95624 26.4857 0.782817C26.8974 0.704776 27.2881 0.985348 27.3565 1.3987C27.4249 1.81206 27.1449 2.20162 26.7333 2.28014C20.8603 3.4007 15.4404 6.20881 11.1378 10.3605C10.8364 10.6514 10.3566 10.6554 10.0584 10.3612Z" fill="white"/>
<path d="M0.977347 32.7133C0.558388 32.7162 0.215514 32.3787 0.222508 31.9598C0.327663 25.6613 2.27368 19.5306 5.82031 14.3245C6.05619 13.9783 6.53091 13.9003 6.87153 14.1443C7.21215 14.3882 7.28964 14.8617 7.05415 15.2082C3.69363 20.1534 1.84687 25.9715 1.74013 31.9495C1.73265 32.3684 1.39631 32.7105 0.977347 32.7133Z" fill="white"/>
<path d="M10.3614 54.9399C10.0672 55.2382 9.58616 55.242 9.29489 54.9409C4.91554 50.4128 1.9565 44.7017 0.783074 38.5126C0.70503 38.101 0.985606 37.7102 1.39896 37.6418C1.81232 37.5735 2.20188 37.8534 2.2804 38.265C3.40096 44.138 6.20907 49.5579 10.3607 53.8605C10.6516 54.162 10.6557 54.6417 10.3614 54.9399Z" fill="white"/>
<path d="M32.7136 64.021C32.7164 64.4399 32.379 64.7828 31.9601 64.7758C25.6616 64.6706 19.5309 62.7246 14.3248 59.178C13.9785 58.9421 13.9006 58.4674 14.1445 58.1268C14.3885 57.7862 14.8619 57.7087 15.2085 57.9442C20.1537 61.3047 25.9717 63.1514 31.9498 63.2582C32.3687 63.2656 32.7107 63.602 32.7136 64.021Z" fill="white"/>
<path d="M54.9402 54.6368C55.2385 54.9311 55.2423 55.4121 54.9411 55.7034C50.4131 60.0828 44.702 63.0418 38.5128 64.2152C38.1012 64.2933 37.7104 64.0127 37.6421 63.5993C37.5737 63.186 37.8537 62.7964 38.2652 62.7179C44.1383 61.5973 49.5581 58.7892 53.8607 54.6376C54.1622 54.3467 54.6419 54.3426 54.9402 54.6368Z" fill="white"/>
<path d="M64.0212 32.2847C64.4402 32.2819 64.783 32.6193 64.776 33.0382C64.6709 39.3367 62.7249 45.4674 59.1783 50.6735C58.9424 51.0198 58.4676 51.0977 58.127 50.8538V50.8538C57.7864 50.6098 57.7089 50.1364 57.9444 49.7898C61.3049 44.8446 63.1517 39.0266 63.2584 33.0485C63.2659 32.6296 63.6022 32.2876 64.0212 32.2847V32.2847Z" fill="white"/>
<path d="M54.6371 10.0581C54.9313 9.75984 55.4124 9.75601 55.7037 10.0572C60.083 14.5852 63.0421 20.2964 64.2155 26.4855C64.2935 26.8971 64.0129 27.2879 63.5996 27.3562C63.1862 27.4246 62.7967 27.1446 62.7182 26.7331C61.5976 20.86 58.7895 15.4402 54.6378 11.1376C54.3469 10.8361 54.3429 10.3564 54.6371 10.0581Z" fill="white"/>
</svg>
